<svg width="222" height="222" viewBox="0 0 222 222" fill="none" xmlns="http://www.w3.org/2000/svg">
<g clip-path="url(#clip0_9256_218)">
<path fill-rule="evenodd" clip-rule="evenodd" d="M165.361 5.10647C165.972 3.86837 165.464 2.36928 164.225 1.75816C162.987 1.14704 161.488 1.65532 160.877 2.89342L138.117 49.0048C102.828 28.9812 57.1796 34.0057 27.0926 64.0927C-9.03087 100.216 -9.03087 158.784 27.0926 194.907C63.2161 231.031 121.784 231.031 157.907 194.907C188.086 164.729 193.05 118.893 172.811 83.5597L218.829 60.8455C220.067 60.2344 220.576 58.7353 219.965 57.4972C219.353 56.2591 217.854 55.7508 216.616 56.3619L174.418 77.1907C175.942 73.9033 176.629 70.3237 176.48 66.7727L196.617 52.2003C197.736 51.3908 197.987 49.8279 197.177 48.7093C196.368 47.5908 194.805 47.3402 193.686 48.1496L175.559 61.2676C174.752 58.5635 173.426 55.9813 171.581 53.6777L190.774 34.4838C191.751 33.5075 191.751 31.9246 190.774 30.9483C189.798 29.972 188.215 29.972 187.239 30.9483L168.045 50.1421C165.741 48.2971 163.159 46.9711 160.455 46.164L173.573 28.0365C174.383 26.918 174.132 25.355 173.013 24.5456C171.895 23.7361 170.332 23.9867 169.522 25.1053L154.95 45.2426C151.399 45.0935 147.819 45.7809 144.532 47.305L165.361 5.10647ZM165.622 87.108L163.798 88.0085C163.683 88.0653 163.565 88.1124 163.447 88.1502C155.129 91.9956 144.947 90.4897 138.09 83.6326C131.233 76.7754 129.727 66.5935 133.572 58.276C133.61 58.1573 133.657 58.04 133.714 57.9249L134.57 56.1916C102.278 37.6327 60.3421 42.1569 32.7495 69.7495C-0.249828 102.749 -0.249828 156.251 32.7495 189.251C65.7488 222.25 119.251 222.25 152.251 189.251C179.935 161.566 184.397 119.442 165.622 87.108ZM141.626 55.3483C148.46 48.5141 159.54 48.5141 166.374 55.3483C173.209 62.1825 173.209 73.2629 166.374 80.097C159.54 86.9312 148.46 86.9312 141.626 80.097C134.791 73.2629 134.791 62.1825 141.626 55.3483Z" fill="white"/>
<path fill-rule="evenodd" clip-rule="evenodd" d="M190.749 209.95H187.971V199.803H192.88C193.595 199.803 194.228 199.94 194.778 200.215C195.337 200.49 195.768 200.88 196.07 201.384C196.382 201.888 196.538 202.493 196.538 203.199C196.538 203.914 196.377 204.523 196.056 205.028C195.777 205.459 195.404 205.803 194.937 206.06L196.813 209.95H193.774L192.267 206.554L190.749 206.554V209.95ZM192.261 204.56H190.749V201.851H192.275C192.678 201.851 193.008 201.961 193.265 202.181C193.522 202.392 193.65 202.731 193.65 203.199C193.65 203.648 193.522 203.987 193.265 204.216C193.008 204.445 192.674 204.56 192.261 204.56Z" fill="white"/>
<path fill-rule="evenodd" clip-rule="evenodd" d="M187.724 215.147C189.053 215.716 190.478 216 192 216C193.522 216 194.947 215.716 196.276 215.147C197.605 214.579 198.774 213.791 199.782 212.782C200.791 211.774 201.579 210.605 202.147 209.276C202.716 207.947 203 206.522 203 205C203 203.478 202.716 202.053 202.147 200.724C201.579 199.395 200.791 198.226 199.782 197.217C198.774 196.209 197.605 195.421 196.276 194.853C194.947 194.284 193.522 194 192 194C190.478 194 189.053 194.284 187.724 194.853C186.395 195.421 185.226 196.209 184.217 197.217C183.209 198.226 182.421 199.395 181.853 200.724C181.284 202.053 181 203.478 181 205C181 206.522 181.284 207.947 181.853 209.276C182.421 210.605 183.209 211.774 184.217 212.782C185.226 213.791 186.395 214.579 187.724 215.147ZM196.042 211.93C194.832 212.645 193.485 213.002 192 213.002C190.524 213.002 189.181 212.645 187.971 211.93C186.761 211.206 185.794 210.239 185.07 209.029C184.355 207.819 183.998 206.476 183.998 205C183.998 203.524 184.355 202.181 185.07 200.971C185.794 199.761 186.761 198.799 187.971 198.084C189.181 197.36 190.524 196.997 192 196.997C193.476 196.997 194.819 197.36 196.029 198.084C197.248 198.799 198.215 199.761 198.93 200.971C199.654 202.181 200.016 203.524 200.016 205C200.016 206.476 199.654 207.819 198.93 209.029C198.215 210.239 197.252 211.206 196.042 211.93Z" fill="white"/>
</g>
<defs>
<clipPath id="clip0_9256_218">
<rect width="222" height="222" fill="white"/>
</clipPath>
</defs>
</svg>
